<svg xmlns="http://www.w3.org/2000/svg" xmlns:xlink="http://www.w3.org/1999/xlink" viewBox="0 0 3000 2025"><defs><style>.cls-1{fill:#c5403f;}.cls-2{fill:#3cc5f0;}.cls-3{fill:#172c59;}.cls-4{fill:#fff;}.cls-5{fill:#f1f2f2;}.cls-6{fill:#7fd3f4;}.cls-7{clip-path:url(#clip-path);}.cls-8{fill:#ea8088;}.cls-9{clip-path:url(#clip-path-2);}.cls-10{clip-path:url(#clip-path-3);}.cls-11{clip-path:url(#clip-path-4);}.cls-12{fill:#d1d3d4;}.cls-13{fill:#f7941d;}</style><clipPath id="clip-path"><circle class="cls-1" cx="864.64" cy="636.9" r="36.99" transform="translate(-12.78 1256.08) rotate(-71.59)"/></clipPath><clipPath id="clip-path-2"><circle class="cls-1" cx="978.26" cy="636.9" r="36.99" transform="translate(-163.83 878.28) rotate(-45)"/></clipPath><clipPath id="clip-path-3"><rect class="cls-2" x="798.37" y="771.87" width="246.16" height="345.78" rx="21.38"/></clipPath><clipPath id="clip-path-4"><path class="cls-3" d="M842.4,771.87H995a0,0,0,0,1,0,0v122a76.28,76.28,0,0,1-76.28,76.28h0a76.28,76.28,0,0,1-76.28-76.28v-122A0,0,0,0,1,842.4,771.87Z"/></clipPath></defs><g id="Layer_2" data-name="Layer 2"><g id="_404" data-name="404"><rect class="cls-4" width="3000" height="2025"/><ellipse class="cls-5" cx="921.45" cy="1558.75" rx="281.14" ry="27.18"/><path class="cls-5" d="M1507,614.27c-48.11,21.88-95.22,46.46-142.42,68.78-133.78,63.28-273.84,89.68-418.65,115.51C831.67,818.94,705.68,851.79,642,957.86c-68.44,114-3.2,273.58,85.06,358.26,138,132.35,342.78,161,526.06,144.19,240.21-22.08,506-97.27,705.72-236.06,144-100,198.6-255.54,141.18-422.66-55-160-202-261-371.45-250.56C1650.29,555.88,1577.57,582.17,1507,614.27Z"/><rect class="cls-1" x="876.92" y="742.44" width="86.53" height="29.43"/><rect class="cls-6" x="794.65" y="567.37" width="253.61" height="175.07" rx="18.09"/><circle class="cls-3" cx="864.64" cy="636.9" r="42.71" transform="translate(-56.67 1188.66) rotate(-67.29)"/><circle class="cls-1" cx="864.64" cy="636.9" r="36.99" transform="translate(-12.78 1256.08) rotate(-71.59)"/><g class="cls-7"><rect class="cls-8" x="863.1" y="594.3" width="22.87" height="85.21"/><rect class="cls-8" x="845.61" y="594.3" width="12.58" height="85.21"/></g><circle class="cls-3" cx="978.26" cy="636.9" r="42.71" transform="translate(42.36 1334.56) rotate(-69.77)"/><circle class="cls-1" cx="978.26" cy="636.9" r="36.99" transform="translate(-163.83 878.28) rotate(-45)"/><g class="cls-9"><rect class="cls-8" x="955.81" y="594.22" width="19.61" height="91.59"/><rect class="cls-8" x="980.01" y="595.14" width="8.37" height="91.59"/><rect class="cls-8" x="991.51" y="595.22" width="8.37" height="91.59"/></g><rect class="cls-4" x="867.48" y="695.74" width="107.94" height="30.14" rx="5.73"/><rect class="cls-3" x="876.92" y="695.74" width="5.07" height="30.14"/><rect class="cls-3" x="888.92" y="695.74" width="5.07" height="30.14"/><rect class="cls-3" x="900.92" y="695.74" width="5.07" height="30.14"/><rect class="cls-3" x="912.92" y="695.74" width="5.07" height="30.14"/><rect class="cls-3" x="924.92" y="695.74" width="5.07" height="30.14"/><rect class="cls-3" x="936.92" y="695.74" width="5.07" height="30.14"/><rect class="cls-3" x="948.92" y="695.74" width="5.07" height="30.14"/><rect class="cls-3" x="960.92" y="695.74" width="5.07" height="30.14"/><rect class="cls-2" x="844.46" y="548.38" width="153.99" height="18.99"/><rect class="cls-3" x="769.09" y="599.91" width="25.55" height="103.72"/><rect class="cls-3" x="1048.25" y="603.05" width="25.55" height="103.72"/><rect class="cls-2" x="798.37" y="771.87" width="246.16" height="345.78" rx="21.38"/><g class="cls-10"><rect class="cls-6" x="784.58" y="1054.14" width="273.36" height="89.55"/></g><path class="cls-3" d="M842.4,771.87H995a0,0,0,0,1,0,0v122a76.28,76.28,0,0,1-76.28,76.28h0a76.28,76.28,0,0,1-76.28-76.28v-122A0,0,0,0,1,842.4,771.87Z"/><g class="cls-11"><rect class="cls-12" x="875.98" y="826.98" width="12" height="69.29"/><rect class="cls-12" x="899.98" y="826.98" width="12" height="69.29"/><rect class="cls-12" x="923.98" y="826.98" width="12" height="69.29"/><rect class="cls-12" x="947.98" y="826.98" width="12" height="69.29"/></g><rect class="cls-3" x="827.65" y="1117.66" width="39.83" height="315.75"/><rect class="cls-3" x="975.04" y="1117.66" width="39.83" height="315.75"/><circle class="cls-2" cx="847.56" cy="1261.78" r="35.14" transform="translate(-410.96 409.39) rotate(-22)"/><circle class="cls-2" cx="994.95" cy="1265.95" r="35.14" transform="translate(-564.19 863.92) rotate(-37.38)"/><path class="cls-2" d="M867.48,1558.75h-82.9l24.24-109.12A20.7,20.7,0,0,1,829,1433.41h38.44Z"/><path class="cls-3" d="M867.48,1558.75h-101a38.53,38.53,0,0,1,38.53-38.52h62.43Z"/><rect class="cls-12" x="786.39" y="1542.68" width="14.07" height="16.07"/><rect class="cls-12" x="809.41" y="1542.68" width="14.07" height="16.07"/><rect class="cls-12" x="831.1" y="1542.68" width="14.07" height="16.07"/><path class="cls-2" d="M975,1558.75h82.9l-24.24-109.12a20.71,20.71,0,0,0-20.22-16.22H975Z"/><path class="cls-3" d="M975,1558.75h101a38.53,38.53,0,0,0-38.52-38.52H975Z"/><rect class="cls-12" x="1042.05" y="1542.68" width="14.07" height="16.07" transform="translate(2098.17 3101.44) rotate(180)"/><rect class="cls-12" x="1019.03" y="1542.68" width="14.07" height="16.07" transform="translate(2052.14 3101.44) rotate(180)"/><rect class="cls-12" x="997.34" y="1542.68" width="14.07" height="16.07" transform="translate(2008.76 3101.44) rotate(180)"/><rect class="cls-12" x="840.17" y="1327.74" width="14.79" height="105.67"/><rect class="cls-12" x="987.56" y="1327.74" width="14.79" height="105.67"/><rect class="cls-12" x="840.36" y="1117.66" width="14.79" height="21.15"/><rect class="cls-12" x="987.75" y="1117.66" width="14.79" height="21.15"/><polygon class="cls-3" points="798.37 790.75 769.1 790.75 728.81 790.75 728.81 861.12 728.81 861.62 742.56 861.62 742.56 1010.17 755.34 1009.36 755.34 861.62 798.37 861.62 798.37 790.75"/><rect class="cls-12" x="742.57" y="836.71" width="12.77" height="24.91"/><circle class="cls-2" cx="748.35" cy="1016.82" r="19.54"/><polygon class="cls-3" points="1044.53 790.75 1073.81 790.75 1114.09 790.75 1114.09 861.12 1114.09 861.62 1100.34 861.62 1100.34 1010.17 1087.56 1009.36 1087.56 861.62 1044.53 861.62 1044.53 790.75"/><rect class="cls-12" x="1087.56" y="836.71" width="12.77" height="24.91" transform="translate(2187.89 1698.33) rotate(180)"/><circle class="cls-2" cx="1094.55" cy="1016.82" r="19.54"/><path class="cls-12" d="M717.41,970.93l369.16,108.57a89.35,89.35,0,0,0,165.7,42.11l-57,1.28a38.33,38.33,0,0,1-38.75-32.49h0a38.34,38.34,0,0,1,36.68-44.16l66.31-2.09a89.34,89.34,0,0,0-156.5-20.52L733.84,915.07A89.35,89.35,0,0,0,568.14,873l57-1.28a38.34,38.34,0,0,1,38.75,32.49h0a38.33,38.33,0,0,1-36.68,44.16l-66.31,2.09a89.34,89.34,0,0,0,156.5,20.52Z"/><path class="cls-4" d="M758.25,952.6h0a12.23,12.23,0,0,1,15.19-8.29l262,77a12.25,12.25,0,0,1,8.29,15.19h0a12.24,12.24,0,0,1-15.19,8.29l-262-77A12.23,12.23,0,0,1,758.25,952.6Z"/><path class="cls-3" d="M822,907.86h0A19.81,19.81,0,0,0,795.92,918l-19.46,44.34,9.34,4.1-39,44.49a6.38,6.38,0,0,0,.59,9h0a6.37,6.37,0,0,0,9-.59l41.69-47.52,14.67,6.44L832.2,934A19.81,19.81,0,0,0,822,907.86Z"/><polygon class="cls-2" points="776.46 962.38 812.74 978.3 817.42 967.63 781.35 951.24 776.46 962.38"/><line class="cls-2" x1="1063.98" y1="1023.5" x2="1050.69" y2="1025.2"/><path class="cls-3" d="M1082.22,1073.08l-32.7,3-3.63-39.41a16.42,16.42,0,0,1,14.85-17.85h0a16.42,16.42,0,0,1,17.86,14.84Z"/><rect class="cls-2" x="1049.01" y="1064.94" width="32.84" height="9.66" transform="translate(-93.47 102.04) rotate(-5.25)"/><path class="cls-3" d="M1067.22,1089.26h0a6.68,6.68,0,0,1-7.27-6l-.74-8,13.31-1.22.74,8A6.68,6.68,0,0,1,1067.22,1089.26Z"/><rect class="cls-3" x="912.92" y="472.44" width="14.53" height="75.94"/><circle class="cls-1" cx="919.97" cy="464.35" r="22.02"/><circle class="cls-8" cx="924.92" cy="457.3" r="12" transform="translate(268.31 1253.2) rotate(-76.79)"/><rect class="cls-8" x="781.87" y="613.72" width="12.78" height="12.78"/><rect class="cls-8" x="781.87" y="634.83" width="12.78" height="12.78"/><rect class="cls-8" x="781.87" y="655.94" width="12.78" height="12.78"/><rect class="cls-8" x="781.87" y="677.05" width="12.78" height="12.78"/><rect class="cls-8" x="1048.15" y="616.86" width="12.78" height="12.78"/><rect class="cls-8" x="1048.15" y="637.97" width="12.78" height="12.78"/><rect class="cls-8" x="1048.15" y="659.08" width="12.78" height="12.78"/><rect class="cls-8" x="1048.15" y="680.18" width="12.78" height="12.78"/><polygon class="cls-13" points="1123.93 725.88 1199.42 624.83 1202.07 680.18 1286.8 623.25 1182.88 733.37 1184.22 673.89 1123.93 725.88"/><polygon class="cls-13" points="734.48 1128.23 594.73 1261.78 673.95 1236.86 588.89 1357.06 763.59 1194.78 701.93 1200.61 734.48 1128.23"/><polygon class="cls-13" points="728.81 753.6 702.51 657.61 682.08 691.97 644 626.05 673.72 750.47 695.08 707.76 728.81 753.6"/><polygon class="cls-13" points="1066.73 1188.95 1083.98 1251.94 1097.39 1229.39 1122.38 1272.65 1102.88 1191.01 1088.86 1219.03 1066.73 1188.95"/><path class="cls-3" d="M1734,871c0,95.82-58.23,146.62-129.27,146.62-73.51,0-125.14-57-125.14-141.25,0-88.38,54.93-146.2,129.27-146.2C1684.84,730.2,1734,788.43,1734,871Zm-216,4.55c0,59.47,32.21,112.75,88.79,112.75,57,0,89.21-52.45,89.21-115.64,0-55.35-28.91-113.17-88.79-113.17C1547.73,759.52,1518,814.45,1518,875.58Z"/><path class="cls-3" d="M1962,911.51c0,73.93-51.21,106.14-99.53,106.14-54.1,0-95.82-39.65-95.82-102.84,0-66.9,43.78-106.14,99.12-106.14C1923.14,808.67,1962,850.38,1962,911.51Zm-158.59,2.06c0,43.78,25.19,76.82,60.71,76.82,34.69,0,60.71-32.63,60.71-77.64,0-33.87-16.93-76.82-59.88-76.82S1803.37,875.58,1803.37,913.57Z"/><path class="cls-3" d="M2007.8,878.47c0-25.61-.82-46.26-1.65-65.26h32.63l1.65,34.28h.83c14.86-24.36,38.41-38.82,71-38.82,48.32,0,84.67,40.89,84.67,101.6,0,71.86-43.78,107.38-90.86,107.38-26.43,0-49.56-11.56-61.54-31.39h-.83v108.62H2007.8Zm35.93,53.28a81.43,81.43,0,0,0,1.66,14.86c6.6,25.2,28.49,42.54,54.51,42.54,38.41,0,60.71-31.39,60.71-77.23,0-40.06-21.06-74.34-59.47-74.34-24.78,0-47.91,17.76-54.93,45a58.86,58.86,0,0,0-2.48,14.87Z"/><path class="cls-3" d="M2235.77,992c0-14.86,10.33-25.6,24.37-25.6,14.87,0,24.37,10.74,24.37,25.6,0,14.46-9.5,25.61-24.37,25.61C2245.69,1017.65,2235.77,1006.5,2235.77,992ZM2246.1,933l-5.78-198.24H2280L2274.18,933Z"/></g></g></svg>