<svg id="cart_2" data-name="cart 2" xmlns="http://www.w3.org/2000/svg" width="195.792" height="181.259" viewBox="0 0 195.792 181.259">
  <path id="Path_13" data-name="Path 13" d="M93.416,63.2H8.93a5,5,0,0,1,0-10H93.416a8.94,8.94,0,0,0,8.9-8.94v-.254a8.94,8.94,0,0,0-8.9-8.94H8.93a5,5,0,1,1,0-10H93.416a18.939,18.939,0,0,1,18.9,18.939v.254A18.94,18.94,0,0,1,93.416,63.2Z" transform="translate(12.721 81.152)" fill="#131418"/>
  <path id="Path_14" data-name="Path 14" d="M114.738,94.708a3.305,3.305,0,0,1-1.1,0,3.729,3.729,0,0,1-2.5-4.661l22.88-75.758H9.067L23.685,90.555a3.771,3.771,0,0,1-7.372,1.4L0,6.62H144.058L118.213,92.038A3.729,3.729,0,0,1,114.738,94.708Z" transform="translate(0 21.429)" fill="#131418"/>
  <path id="Path_15" data-name="Path 15" d="M35.639,33.639a3.263,3.263,0,0,1-1.229-.212,3.771,3.771,0,0,1-2.246-4.788L42.121.59H66.06a3.771,3.771,0,0,1,0,7.5H47.417L39.2,31.181a3.729,3.729,0,0,1-3.559,2.457Z" transform="translate(103.42 1.91)" fill="#131418"/>
  <path id="Path_16" data-name="Path 16" d="M64.812,12.711H44.856A6.356,6.356,0,0,1,44.856,0H64.812a6.356,6.356,0,0,1,0,12.711Z" transform="translate(124.625 0)" fill="#131418"/>
  <path id="Path_17" data-name="Path 17" d="M21.59,51.728A16.948,16.948,0,1,0,38.538,34.78,16.948,16.948,0,0,0,21.59,51.728Z" transform="translate(69.887 112.583)" fill="#131418"/>
  <path id="Path_18" data-name="Path 18" d="M2.79,51.728A16.948,16.948,0,1,0,19.738,34.78,16.948,16.948,0,0,0,2.79,51.728Z" transform="translate(9.031 112.583)" fill="#131418"/>
  <path id="Path_19" data-name="Path 19" d="M23.72,44.8A7.923,7.923,0,1,0,31.6,36.92,7.923,7.923,0,0,0,23.72,44.8Z" transform="translate(76.782 119.51)" fill="#131418"/>
  <path id="Path_20" data-name="Path 20" d="M4.73,44.8a7.923,7.923,0,1,0,7.923-7.881A7.923,7.923,0,0,0,4.73,44.8Z" transform="translate(15.311 119.51)" fill="#131418"/>
  <path id="Path_21" data-name="Path 21" d="M25.9,90.21h-.636a3.771,3.771,0,0,1-3.051-4.237l13.135-75.5a3.771,3.771,0,0,1,4.237-3.051,3.686,3.686,0,0,1,3.051,4.237L29.591,87.117A3.686,3.686,0,0,1,25.9,90.21Z" transform="translate(71.801 23.893)" fill="#131418"/>
  <path id="Path_22" data-name="Path 22" d="M21.6,89.006h-.254a3.771,3.771,0,0,1-3.517-3.983l5-74.571a3.771,3.771,0,0,1,7.5.508l-5,74.571A3.729,3.729,0,0,1,21.6,89.006Z" transform="translate(57.679 23.444)" fill="#131418"/>
  <path id="Path_23" data-name="Path 23" d="M21.549,90.347a3.686,3.686,0,0,1-3.686-3.178L5.957,11.666a3.734,3.734,0,1,1,7.372-1.186L25.235,86.026a3.729,3.729,0,0,1-3.093,4.237Z" transform="translate(19.126 23.755)" fill="#131418"/>
  <path id="Path_24" data-name="Path 24" d="M19.947,89.039a3.729,3.729,0,0,1-3.729-3.559l-3.729-74.7a3.771,3.771,0,0,1,7.5-.3l3.686,74.656a3.729,3.729,0,0,1-3.559,3.94Z" transform="translate(40.43 23.411)" fill="#131418"/>
  <path id="Path_25" data-name="Path 25" d="M123.831,20.26H5.576a3.771,3.771,0,0,1,0-7.5H123.789a3.771,3.771,0,0,1,0,7.5Z" transform="translate(7.135 41.304)" fill="#131418"/>
  <path id="Path_26" data-name="Path 26" d="M110.349,26.346H6.2a3.771,3.771,0,0,1,0-7.33H110.433a3.771,3.771,0,1,1,0,7.5Z" transform="translate(10.745 61.487)" fill="#131418"/>
</svg>
